<svg width="512" height="512" viewBox="0 0 680 680" xmlns="http://www.w3.org/2000/svg">
<defs>
<linearGradient id="bg" x1="0" y1="0" x2="0" y2="1">
<stop offset="0" stop-color="#10131a"/>
<stop offset="1" stop-color="#191f2b"/>
</linearGradient>
</defs>
<rect x="60" y="60" width="560" height="560" rx="104" fill="url(#bg)" stroke="#2a3342" stroke-width="3"/>
<ellipse cx="340" cy="330" rx="200" ry="150" fill="#00c853" opacity="0.10"/>
<rect x="316" y="96" width="48" height="30" rx="6" fill="#c8d0dc"/>
<polygon points="322,126 358,126 344,168 336,168" fill="#e6ebf2"/>
<line x1="340" y1="168" x2="340" y2="182" stroke="#00e676" stroke-width="5" stroke-linecap="round"/>
<polygon points="340,175 470,250 340,325 210,250" fill="#8affc1"/>
<polygon points="210,250 340,325 340,465 210,390" fill="#00c853"/>
<polygon points="470,250 340,325 340,465 470,390" fill="#009f43"/>
<g stroke="#0c7a37" stroke-width="2" opacity="0.55">
<line x1="210" y1="270" x2="340" y2="345"/>
<line x1="210" y1="289" x2="340" y2="364"/>
<line x1="210" y1="309" x2="340" y2="384"/>
<line x1="210" y1="328" x2="340" y2="403"/>
<line x1="210" y1="348" x2="340" y2="423"/>
<line x1="210" y1="368" x2="340" y2="443"/>
</g>
<g stroke="#00722f" stroke-width="2" opacity="0.55">
<line x1="340" y1="345" x2="470" y2="270"/>
<line x1="340" y1="364" x2="470" y2="289"/>
<line x1="340" y1="384" x2="470" y2="309"/>
<line x1="340" y1="403" x2="470" y2="328"/>
<line x1="340" y1="423" x2="470" y2="348"/>
<line x1="340" y1="443" x2="470" y2="368"/>
</g>
<polygon points="340,175 470,250 340,325 210,250" fill="none" stroke="#d6ffe6" stroke-width="3" opacity="0.7"/>
<text x="340" y="560" text-anchor="middle" font-family="Arial, Helvetica, sans-serif" font-size="76" font-weight="800" letter-spacing="1">
<tspan fill="#f2f6fa">3DPrint</tspan><tspan fill="#00e676">33</tspan>
</text>
</svg>
